<svg xmlns="http://www.w3.org/2000/svg" xmlns:xlink="http://www.w3.org/1999/xlink" viewBox="0 0 360 360" version="1.1">
  <defs>
    <rect id="square" width="100" height="100" stroke="black" stroke-width="1" rx="6" ry="6"/>
    <rect id="horizontal" width="100" height="30" stroke="black" stroke-width="1" rx="6" ry="6"/>
    <rect id="vertical" width="30" height="100" stroke="black" stroke-width="1" rx="6" ry="6"/>
  </defs>
  <g id="cross">
    <rect x="65" y="15" width="230" height="330" fill="black"/>
    <rect x="15" y="65" width="330" height="230" fill="black"/>
  </g>

  <!-- f:front, u:up, r:right, b:back, l:left, d:down (sorted, except first letter) -->
  <use id="bul" x="30" y="0" href="#horizontal"/>
  <use id="bu" x="130" y="0" href="#horizontal"/>
  <use id="bur" x="230" y="0" href="#horizontal"/>

  <use id="lub" x="0" y="30" href="#vertical"/>
  <use id="ubl" x="30" y="30" href="#square"/>
  <use id="ub" x="130" y="30" href="#square"/>
  <use id="urb" x="230" y="30" href="#square"/>
  <use id="rub" x="330" y="30" href="#vertical"/>

  <use id="lu" x="0" y="130" href="#vertical"/>
  <use id="ul" x="30" y="130" href="#square"/>
  <use id="u" x="130" y="130" href="#square"/>
  <use id="ur" x="230" y="130" href="#square"/>
  <use id="ru" x="330" y="130" href="#vertical"/>

  <use id="lfu" x="0" y="230" href="#vertical"/>
  <use id="ufl" x="30" y="230" href="#square"/>
  <use id="uf" x="130" y="230" href="#square"/>
  <use id="ufr" x="230" y="230" href="#square"/>
  <use id="rfu" x="330" y="230" href="#vertical"/>

  <use id="ful" x="30" y="330" href="#horizontal"/>
  <use id="fu" x="130" y="330" href="#horizontal"/>
  <use id="fur" x="230" y="330" href="#horizontal"/>
</svg>