<svg xmlns="http://www.w3.org/2000/svg" xmlns:xlink="http://www.w3.org/1999/xlink" height="300" viewBox="0 0 360 360" version="1.1">
  <!-- <rect x="15" y="15" width="330" height="330" fill="black"/> -->

  <!-- <rect x="0" y="0" width="30" height="30" stroke="black" stroke-width="1" fill="lightgray" rx="6" ry="6"/> -->
  <rect x="30" y="0" width="100" height="30" stroke="black" stroke-width="1" fill="lightgray" rx="6" ry="6"/>
  <rect x="130" y="0" width="100" height="30" stroke="black" stroke-width="1" fill="yellow" rx="6" ry="6"/>
  <rect x="230" y="0" width="100" height="30" stroke="black" stroke-width="1" fill="lightgray" rx="6" ry="6"/>
  <!-- <rect x="330" y="0" width="30" height="30" stroke="black" stroke-width="1" fill="lightgray" rx="6" ry="6"/> -->

  <rect x="0" y="30" width="30" height="100" stroke="black" stroke-width="1" fill="lightgray" rx="6" ry="6"/>
  <rect x="30" y="30" width="100" height="100" stroke="black" stroke-width="1" fill="yellow" rx="6" ry="6"/>
  <rect x="130" y="30" width="100" height="100" stroke="black" stroke-width="1" fill="lightgray" rx="6" ry="6"/>
  <rect x="230" y="30" width="100" height="100" stroke="black" stroke-width="1" fill="yellow" rx="6" ry="6"/>
  <rect x="330" y="30" width="30" height="100" stroke="black" stroke-width="1" fill="lightgray" rx="6" ry="6"/>

  <rect x="0" y="130" width="30" height="100" stroke="black" stroke-width="1" fill="yellow" rx="6" ry="6"/>
  <rect x="30" y="130" width="100" height="100" stroke="black" stroke-width="1" fill="lightgray" rx="6" ry="6"/>
  <rect x="130" y="130" width="100" height="100" stroke="black" stroke-width="1" fill="yellow" rx="6" ry="6"/>
  <rect x="230" y="130" width="100" height="100" stroke="black" stroke-width="1" fill="yellow" rx="6" ry="6"/>
  <rect x="330" y="130" width="30" height="100" stroke="black" stroke-width="1" fill="lightgray" rx="6" ry="6"/>

  <rect x="0" y="230" width="30" height="100" stroke="black" stroke-width="1" fill="lightgray" rx="6" ry="6"/>
  <rect x="30" y="230" width="100" height="100" stroke="black" stroke-width="1" fill="yellow" rx="6" ry="6"/>
  <rect x="130" y="230" width="100" height="100" stroke="black" stroke-width="1" fill="yellow" rx="6" ry="6"/>
  <rect x="230" y="230" width="100" height="100" stroke="black" stroke-width="1" fill="yellow" rx="6" ry="6"/>
  <rect x="330" y="230" width="30" height="100" stroke="black" stroke-width="1" fill="lightgray" rx="6" ry="6"/>

  <!-- <rect x="0" y="330" width="30" height="30" stroke="black" stroke-width="1" fill="lightgray" rx="6" ry="6"/> -->
  <rect x="30" y="330" width="100" height="30" stroke="black" stroke-width="1" fill="lightgray" rx="6" ry="6"/>
  <rect x="130" y="330" width="100" height="30" stroke="black" stroke-width="1" fill="lightgray" rx="6" ry="6"/>
  <rect x="230" y="330" width="100" height="30" stroke="black" stroke-width="1" fill="lightgray" rx="6" ry="6"/>
  <!-- <rect x="330" y="330" width="30" height="30" stroke="black" stroke-width="1" fill="lightgray" rx="6" ry="6"/> -->
</svg>
